<svg width="16" height="16" viewBox="0 0 16 16" fill="none" xmlns="http://www.w3.org/2000/svg">
<g id="reload">
<path id="Vector" d="M11.1305 3.80349C10.1597 4.01797 9.2453 4.29454 8.37609 4.61627C8.22369 4.67271 8.08258 4.52596 8.13338 4.36792C8.22369 4.10828 8.28578 3.82607 8.3648 3.55514C7.39963 3.52692 6.45139 3.81478 5.65555 4.37921C4.01871 5.54757 3.36961 7.68111 4.08079 9.5663C4.19368 9.8598 4.04128 10.1815 3.75342 10.2944C3.68569 10.317 3.61796 10.3283 3.55587 10.3283C3.3301 10.3283 3.10998 10.1872 3.02531 9.9614C2.13352 7.59645 2.94629 4.92106 5.00081 3.45919C6.05629 2.70286 7.33754 2.35291 8.62443 2.43758C8.68652 2.13279 8.74861 1.828 8.79941 1.50627C8.82198 1.35388 8.99131 1.2805 9.10984 1.37645C9.88875 2.0199 10.6112 2.71415 11.249 3.47612C11.345 3.58901 11.2829 3.76398 11.1418 3.79785L11.1305 3.80349ZM5.24351 12.5239C5.88132 13.2859 6.60378 13.9801 7.38269 14.6236C7.50122 14.7195 7.67055 14.6461 7.69313 14.4937C7.73828 14.172 7.80601 13.8729 7.8681 13.5624C9.155 13.6528 10.4362 13.2972 11.4917 12.5408C13.5462 11.0733 14.359 8.39793 13.4672 6.03863C13.3826 5.81285 13.1681 5.67175 12.9367 5.67175C12.8689 5.67175 12.8012 5.68304 12.7391 5.70561C12.4456 5.81285 12.2989 6.14022 12.4117 6.43372C13.1229 8.31891 12.4738 10.4524 10.837 11.6208C10.0468 12.1852 9.09291 12.4731 8.12774 12.4449C8.20111 12.174 8.26884 11.8917 8.35915 11.6321C8.40995 11.4741 8.26884 11.3273 8.11645 11.3838C7.24723 11.7055 6.33286 11.982 5.36204 12.1965C5.22094 12.2304 5.15885 12.4054 5.2548 12.5183L5.24351 12.5239Z" fill="white"/>
</g>
</svg>
