<svg width="24" height="24" viewBox="0 0 24 24" fill="none" xmlns="http://www.w3.org/2000/svg">
<path d="M12 2.03999C6.50004 2.03999 2.04004 6.49999 2.04004 12C2.04004 17.5 6.50004 21.96 12 21.96C17.5 21.96 21.96 17.5 21.96 12C21.96 6.49999 17.5 2.03999 12 2.03999ZM13.38 5.48999L12.92 14.12H11.1L10.66 5.48999H13.39H13.38ZM13.07 18.1C12.8 18.38 12.45 18.52 12.02 18.52C11.59 18.52 11.23 18.38 10.95 18.1C10.67 17.82 10.53 17.48 10.53 17.09C10.53 16.7 10.67 16.36 10.95 16.09C11.23 15.81 11.59 15.67 12.02 15.67C12.45 15.67 12.8 15.81 13.07 16.09C13.34 16.37 13.48 16.7 13.48 17.09C13.48 17.48 13.34 17.82 13.07 18.1Z" fill="#EB5757"/>
</svg>
