<svg width="12" height="14" viewBox="0 0 12 14" fill="none" xmlns="http://www.w3.org/2000/svg">
<path d="M9.13049 2.80349C8.15968 3.01797 7.2453 3.29454 6.37609 3.61627C6.22369 3.67271 6.08258 3.52596 6.13338 3.36792C6.22369 3.10828 6.28578 2.82607 6.3648 2.55514C5.39963 2.52692 4.45139 2.81478 3.65555 3.37921C2.01871 4.54757 1.36961 6.68111 2.08079 8.5663C2.19368 8.8598 2.04128 9.18152 1.75342 9.29441C1.68569 9.31699 1.61796 9.32827 1.55587 9.32827C1.3301 9.32827 1.10998 9.18717 1.02531 8.9614C0.133517 6.59645 0.946293 3.92106 3.00081 2.45919C4.05629 1.70286 5.33754 1.35291 6.62443 1.43758C6.68652 1.13279 6.74861 0.827995 6.79941 0.506272C6.82198 0.353876 6.99131 0.280501 7.10984 0.376453C7.88875 1.0199 8.61122 1.71415 9.24902 2.47612C9.34497 2.58901 9.28289 2.76398 9.14178 2.79785L9.13049 2.80349ZM3.24351 11.5239C3.88132 12.2859 4.60378 12.9801 5.38269 13.6236C5.50122 13.7195 5.67055 13.6461 5.69313 13.4937C5.73828 13.172 5.80601 12.8729 5.8681 12.5624C7.155 12.6528 8.43625 12.2972 9.49173 11.5408C11.5462 10.0733 12.359 7.39793 11.4672 5.03863C11.3826 4.81285 11.1681 4.67175 10.9367 4.67175C10.8689 4.67175 10.8012 4.68304 10.7391 4.70561C10.4456 4.81285 10.2989 5.14022 10.4117 5.43372C11.1229 7.31891 10.4738 9.45245 8.83699 10.6208C8.04679 11.1852 7.09291 11.4731 6.12774 11.4449C6.20111 11.174 6.26884 10.8917 6.35915 10.6321C6.40995 10.4741 6.26884 10.3273 6.11645 10.3838C5.24723 10.7055 4.33286 10.982 3.36204 11.1965C3.22094 11.2304 3.15885 11.4054 3.2548 11.5183L3.24351 11.5239Z" fill="white"/>
</svg>
