<svg width="24" height="24" viewBox="0 0 24 24" fill="none" xmlns="http://www.w3.org/2000/svg">
<g id="plus_circle">
<path id="Vector" d="M7.25 12C7.25 11.59 7.59 11.25 8 11.25H11.25V8C11.25 7.59 11.59 7.25 12 7.25C12.41 7.25 12.75 7.59 12.75 8V11.25H16C16.41 11.25 16.75 11.59 16.75 12C16.75 12.41 16.41 12.75 16 12.75H12.75V16C12.75 16.41 12.41 16.75 12 16.75C11.59 16.75 11.25 16.41 11.25 16V12.75H8C7.59 12.75 7.25 12.41 7.25 12ZM12 22.75C17.91 22.75 22.75 17.91 22.75 12C22.75 6.09 17.91 1.25 12 1.25C6.09 1.25 1.25 6.09 1.25 12C1.25 17.91 6.09 22.75 12 22.75ZM21.25 12C21.25 17.09 17.09 21.25 12 21.25C6.91 21.25 2.75 17.09 2.75 12C2.75 6.91 6.91 2.75 12 2.75C17.09 2.75 21.25 6.91 21.25 12Z" fill="#4E8CBE"/>
</g>
</svg>
